<svg xmlns="http://www.w3.org/2000/svg" xmlns:xlink="http://www.w3.org/1999/xlink" width="500" zoomAndPan="magnify" viewBox="0 0 375 374.999991" height="500" preserveAspectRatio="xMidYMid meet" version="1.0"><defs><g/><clipPath id="2b052f8f7a"><path d="M 27 157 L 82 157 L 82 210 L 27 210 Z M 27 157 " clip-rule="nonzero"/></clipPath><clipPath id="59080b0255"><path d="M 64.191406 157.078125 L 81.613281 189.773438 L 45.082031 209.234375 L 27.664062 176.539062 Z M 64.191406 157.078125 " clip-rule="nonzero"/></clipPath><clipPath id="9b8fc31fbe"><path d="M 64.191406 157.078125 L 81.613281 189.773438 L 45.207031 209.171875 L 27.785156 176.472656 Z M 64.191406 157.078125 " clip-rule="nonzero"/></clipPath><clipPath id="95bf781c2d"><path d="M 293 182 L 348 182 L 348 235 L 293 235 Z M 293 182 " clip-rule="nonzero"/></clipPath><clipPath id="eb698ea738"><path d="M 329.792969 182.25 L 347.210938 214.945312 L 310.683594 234.40625 L 293.261719 201.710938 Z M 329.792969 182.25 " clip-rule="nonzero"/></clipPath><clipPath id="f2091c1a5a"><path d="M 329.792969 182.25 L 347.210938 214.945312 L 310.804688 234.339844 L 293.386719 201.644531 Z M 329.792969 182.25 " clip-rule="nonzero"/></clipPath></defs><rect x="-37.5" width="450" fill="#ffffff" y="-37.499999" height="449.999989" fill-opacity="1"/><rect x="-37.5" width="450" fill="#ffffff" y="-37.499999" height="449.999989" fill-opacity="1"/><g fill="#000000" fill-opacity="1"><g transform="translate(147.376942, 225.21911)"><g><path d="M 73.390625 0 L 73.953125 -31.21875 L 69.78125 -31.21875 L 65.609375 -17.703125 C 63.597656 -11.273438 60.722656 -7.148438 56.984375 -5.328125 C 54.773438 -4.367188 52.234375 -3.890625 49.359375 -3.890625 L 34.53125 -3.890625 L 34.53125 -82.453125 L 46.765625 -82.453125 L 46.765625 -86.328125 L 2.875 -86.328125 L 2.875 -82.453125 L 14.390625 -82.453125 L 14.390625 -3.890625 L 2.875 -3.890625 L 2.875 0 Z M 73.390625 0 "/></g></g></g><g fill="#000000" fill-opacity="1"><g transform="translate(183.148543, 217.824617)"><g><path d="M 41.59375 0 L 41.59375 -3.140625 L 27.875 -3.140625 L 27.875 -34.15625 L 50.1875 -34.15625 L 50.1875 -37.640625 L 27.875 -37.640625 L 27.875 -66.5625 L 41 -66.5625 C 47.976562 -66.5625 52.585938 -62.921875 54.828125 -55.640625 C 54.910156 -55.566406 54.953125 -55.488281 54.953125 -55.40625 L 57.5 -46.8125 L 60.875 -46.8125 L 60.40625 -69.703125 L 2.328125 -69.703125 L 2.328125 -66.5625 L 11.609375 -66.5625 L 11.609375 -3.140625 L 2.328125 -3.140625 L 2.328125 0 Z M 41.59375 0 "/></g></g></g><path stroke-linecap="butt" transform="matrix(0.75, 0, 0, 0.75, 71.47314, 189.367413)" fill="none" stroke-linejoin="miter" d="M -0.000644742 2.499699 L 329.431669 2.499699 " stroke="#000000" stroke-width="5" stroke-opacity="1" stroke-miterlimit="4"/><g clip-path="url(#2b052f8f7a)"><g clip-path="url(#59080b0255)"><g clip-path="url(#9b8fc31fbe)"><path fill="#ffffff" d="M 64.191406 157.078125 L 81.613281 189.773438 L 45.210938 209.167969 L 27.792969 176.472656 Z M 64.191406 157.078125 " fill-opacity="1" fill-rule="nonzero"/></g></g></g><g clip-path="url(#95bf781c2d)"><g clip-path="url(#eb698ea738)"><g clip-path="url(#f2091c1a5a)"><path fill="#ffffff" d="M 329.792969 182.25 L 347.210938 214.945312 L 310.808594 234.339844 L 293.390625 201.640625 Z M 329.792969 182.25 " fill-opacity="1" fill-rule="nonzero"/></g></g></g><g fill="#000000" fill-opacity="1"><g transform="translate(147.198087, 267.428728)"><g><path d="M 0.953125 -0.28125 L 0.953125 -12.609375 C 0.953125 -12.941406 0.890625 -13.179688 0.765625 -13.328125 C 0.648438 -13.472656 0.429688 -13.546875 0.109375 -13.546875 C 0.0976562 -13.941406 0.207031 -14.25 0.4375 -14.46875 C 0.664062 -14.695312 1.03125 -14.8125 1.53125 -14.8125 C 2.03125 -14.8125 2.382812 -14.5625 2.59375 -14.0625 C 3.1875 -14.5625 3.796875 -14.8125 4.421875 -14.8125 C 5.921875 -14.8125 6.671875 -14.066406 6.671875 -12.578125 L 6.671875 -6.96875 C 6.671875 -6.21875 6.410156 -5.628906 5.890625 -5.203125 C 5.367188 -4.773438 4.660156 -4.5625 3.765625 -4.5625 L 2.765625 -4.5625 L 2.765625 -2.140625 L 2.84375 0 C 2.332031 0.0703125 1.828125 0.109375 1.328125 0.109375 C 1.078125 0.109375 0.953125 -0.0195312 0.953125 -0.28125 Z M 3.984375 -13.3125 C 3.578125 -13.3125 3.171875 -13.109375 2.765625 -12.703125 L 2.765625 -6.0625 L 3.8125 -6.0625 C 4.125 -6.0625 4.378906 -6.140625 4.578125 -6.296875 C 4.773438 -6.460938 4.875 -6.6875 4.875 -6.96875 L 4.875 -12.453125 C 4.875 -13.023438 4.578125 -13.3125 3.984375 -13.3125 Z M 3.984375 -13.3125 "/></g></g></g><g fill="#000000" fill-opacity="1"><g transform="translate(162.102674, 267.428728)"><g><path d="M 0.953125 -0.28125 L 0.953125 -12.609375 C 0.953125 -12.941406 0.890625 -13.179688 0.765625 -13.328125 C 0.648438 -13.472656 0.429688 -13.546875 0.109375 -13.546875 C 0.0976562 -13.941406 0.207031 -14.25 0.4375 -14.46875 C 0.664062 -14.695312 1.03125 -14.8125 1.53125 -14.8125 C 2.03125 -14.8125 2.382812 -14.5625 2.59375 -14.0625 C 3.1875 -14.5625 3.796875 -14.8125 4.421875 -14.8125 C 5.921875 -14.8125 6.671875 -14.066406 6.671875 -12.578125 L 6.671875 -7.296875 C 6.671875 -6.335938 6.269531 -5.65625 5.46875 -5.25 L 5.953125 -2.1875 C 6.023438 -1.695312 6.257812 -1.453125 6.65625 -1.453125 C 6.78125 -1.453125 6.925781 -1.484375 7.09375 -1.546875 C 7.15625 -1.367188 7.1875 -1.15625 7.1875 -0.90625 C 7.1875 -0.65625 7.054688 -0.398438 6.796875 -0.140625 C 6.546875 0.109375 6.226562 0.234375 5.84375 0.234375 C 4.9375 0.234375 4.425781 -0.15625 4.3125 -0.9375 L 3.640625 -4.875 L 2.765625 -4.875 L 2.765625 -2.140625 L 2.84375 0 C 2.332031 0.0703125 1.828125 0.109375 1.328125 0.109375 C 1.078125 0.109375 0.953125 -0.0195312 0.953125 -0.28125 Z M 3.984375 -13.3125 C 3.578125 -13.3125 3.171875 -13.109375 2.765625 -12.703125 L 2.765625 -6.390625 L 3.8125 -6.390625 C 4.125 -6.390625 4.378906 -6.46875 4.578125 -6.625 C 4.773438 -6.78125 4.875 -7.003906 4.875 -7.296875 L 4.875 -12.453125 C 4.875 -13.023438 4.578125 -13.3125 3.984375 -13.3125 Z M 3.984375 -13.3125 "/></g></g></g><g fill="#000000" fill-opacity="1"><g transform="translate(177.303411, 267.428728)"><g><path d="M 0.75 -2.09375 L 0.75 -12.625 C 0.75 -13.382812 1.003906 -13.976562 1.515625 -14.40625 C 2.035156 -14.832031 2.742188 -15.046875 3.640625 -15.046875 C 4.546875 -15.046875 5.242188 -14.847656 5.734375 -14.453125 C 6.222656 -14.054688 6.46875 -13.476562 6.46875 -12.71875 L 6.46875 -2.1875 C 6.46875 -1.425781 6.207031 -0.832031 5.6875 -0.40625 C 5.164062 0.0195312 4.457031 0.234375 3.5625 0.234375 C 2.664062 0.234375 1.972656 0.0351562 1.484375 -0.359375 C 0.992188 -0.753906 0.75 -1.332031 0.75 -2.09375 Z M 2.546875 -12.625 L 2.546875 -2.1875 C 2.546875 -1.914062 2.640625 -1.695312 2.828125 -1.53125 C 3.023438 -1.363281 3.28125 -1.28125 3.59375 -1.28125 C 3.914062 -1.28125 4.175781 -1.359375 4.375 -1.515625 C 4.570312 -1.671875 4.671875 -1.894531 4.671875 -2.1875 L 4.671875 -12.625 C 4.671875 -12.914062 4.570312 -13.140625 4.375 -13.296875 C 4.175781 -13.460938 3.914062 -13.546875 3.59375 -13.546875 C 3.28125 -13.546875 3.023438 -13.460938 2.828125 -13.296875 C 2.640625 -13.140625 2.546875 -12.914062 2.546875 -12.625 Z M 2.546875 -12.625 "/></g></g></g><g fill="#000000" fill-opacity="1"><g transform="translate(192.185212, 267.428728)"><g><path d="M 2.328125 -13.3125 C 1.773438 -13.3125 1.363281 -13.273438 1.09375 -13.203125 C 0.96875 -13.628906 0.90625 -14.046875 0.90625 -14.453125 C 0.90625 -14.691406 1.015625 -14.8125 1.234375 -14.8125 L 6.40625 -14.8125 L 6.40625 -2.1875 C 6.40625 -1.425781 6.144531 -0.832031 5.625 -0.40625 C 5.113281 0.0195312 4.421875 0.234375 3.546875 0.234375 C 2.671875 0.234375 1.972656 0.0390625 1.453125 -0.34375 C 0.941406 -0.738281 0.6875 -1.25 0.6875 -1.875 L 0.6875 -4.703125 C 0.6875 -4.972656 0.882812 -5.160156 1.28125 -5.265625 C 1.488281 -5.328125 1.695312 -5.359375 1.90625 -5.359375 C 2.125 -5.359375 2.335938 -5.332031 2.546875 -5.28125 C 2.503906 -4.914062 2.484375 -4.53125 2.484375 -4.125 L 2.484375 -2.1875 C 2.484375 -1.894531 2.582031 -1.671875 2.78125 -1.515625 C 2.976562 -1.359375 3.234375 -1.28125 3.546875 -1.28125 C 3.867188 -1.28125 4.125 -1.359375 4.3125 -1.515625 C 4.507812 -1.671875 4.609375 -1.894531 4.609375 -2.1875 L 4.609375 -13.3125 Z M 2.328125 -13.3125 "/></g></g></g><g fill="#000000" fill-opacity="1"><g transform="translate(207.067013, 267.428728)"><g><path d="M 3.828125 -7.703125 C 4.378906 -7.703125 4.789062 -7.738281 5.0625 -7.8125 C 5.1875 -7.394531 5.25 -6.976562 5.25 -6.5625 C 5.25 -6.320312 5.140625 -6.203125 4.921875 -6.203125 L 3.578125 -6.203125 C 3.253906 -6.203125 3 -6.117188 2.8125 -5.953125 C 2.625 -5.785156 2.53125 -5.5625 2.53125 -5.28125 L 2.53125 -2.1875 C 2.53125 -1.894531 2.625 -1.671875 2.8125 -1.515625 C 3 -1.359375 3.253906 -1.28125 3.578125 -1.28125 C 3.898438 -1.28125 4.160156 -1.359375 4.359375 -1.515625 C 4.554688 -1.671875 4.65625 -1.894531 4.65625 -2.1875 L 4.65625 -2.765625 L 4.578125 -3.921875 C 4.796875 -3.960938 5.007812 -3.984375 5.21875 -3.984375 C 5.4375 -3.984375 5.648438 -3.953125 5.859375 -3.890625 C 6.253906 -3.785156 6.453125 -3.597656 6.453125 -3.328125 L 6.453125 -1.875 C 6.453125 -1.25 6.191406 -0.738281 5.671875 -0.34375 C 5.160156 0.0390625 4.46875 0.234375 3.59375 0.234375 C 2.71875 0.234375 2.019531 0.0195312 1.5 -0.40625 C 0.988281 -0.832031 0.734375 -1.425781 0.734375 -2.1875 L 0.734375 -5.375 C 0.734375 -6.0625 0.953125 -6.585938 1.390625 -6.953125 C 0.953125 -7.316406 0.734375 -7.84375 0.734375 -8.53125 L 0.734375 -12.625 C 0.734375 -13.382812 0.988281 -13.976562 1.5 -14.40625 C 2.019531 -14.832031 2.707031 -15.046875 3.5625 -15.046875 C 4.425781 -15.046875 5.109375 -14.851562 5.609375 -14.46875 C 6.109375 -14.082031 6.359375 -13.578125 6.359375 -12.953125 L 6.359375 -11.03125 C 6.359375 -10.757812 6.160156 -10.570312 5.765625 -10.46875 C 5.554688 -10.40625 5.34375 -10.375 5.125 -10.375 C 4.914062 -10.375 4.703125 -10.394531 4.484375 -10.4375 C 4.535156 -10.800781 4.5625 -11.191406 4.5625 -11.609375 L 4.5625 -12.625 C 4.5625 -13.238281 4.226562 -13.546875 3.5625 -13.546875 C 3.238281 -13.546875 2.984375 -13.460938 2.796875 -13.296875 C 2.617188 -13.140625 2.53125 -12.914062 2.53125 -12.625 L 2.53125 -8.625 C 2.53125 -8.34375 2.617188 -8.117188 2.796875 -7.953125 C 2.972656 -7.785156 3.203125 -7.703125 3.484375 -7.703125 Z M 3.828125 -7.703125 "/></g></g></g><g fill="#000000" fill-opacity="1"><g transform="translate(221.698227, 267.428728)"><g><path d="M 6.46875 -2 C 6.46875 -1.363281 6.195312 -0.832031 5.65625 -0.40625 C 5.125 0.0195312 4.421875 0.234375 3.546875 0.234375 C 2.679688 0.234375 2 0.0351562 1.5 -0.359375 C 1 -0.753906 0.75 -1.332031 0.75 -2.09375 L 0.75 -12.625 C 0.75 -13.382812 1.003906 -13.976562 1.515625 -14.40625 C 2.035156 -14.832031 2.734375 -15.046875 3.609375 -15.046875 C 4.484375 -15.046875 5.175781 -14.851562 5.6875 -14.46875 C 6.207031 -14.082031 6.46875 -13.578125 6.46875 -12.953125 L 6.46875 -10.125 C 6.46875 -9.851562 6.269531 -9.660156 5.875 -9.546875 C 5.664062 -9.484375 5.453125 -9.453125 5.234375 -9.453125 C 5.023438 -9.453125 4.816406 -9.476562 4.609375 -9.53125 C 4.648438 -9.894531 4.671875 -10.28125 4.671875 -10.6875 L 4.671875 -12.625 C 4.671875 -12.914062 4.570312 -13.140625 4.375 -13.296875 C 4.175781 -13.460938 3.914062 -13.546875 3.59375 -13.546875 C 3.28125 -13.546875 3.023438 -13.460938 2.828125 -13.296875 C 2.640625 -13.140625 2.546875 -12.914062 2.546875 -12.625 L 2.546875 -2.1875 C 2.546875 -1.914062 2.640625 -1.695312 2.828125 -1.53125 C 3.023438 -1.363281 3.28125 -1.28125 3.59375 -1.28125 C 3.914062 -1.28125 4.175781 -1.359375 4.375 -1.515625 C 4.570312 -1.671875 4.671875 -1.894531 4.671875 -2.1875 L 4.671875 -2.6875 L 4.609375 -3.859375 C 4.816406 -3.898438 5.023438 -3.921875 5.234375 -3.921875 C 5.453125 -3.921875 5.664062 -3.890625 5.875 -3.828125 C 6.269531 -3.722656 6.46875 -3.535156 6.46875 -3.265625 Z M 6.46875 -2 "/></g></g></g><g fill="#000000" fill-opacity="1"><g transform="translate(236.443343, 267.428728)"><g><path d="M 4.765625 -14.8125 C 5.304688 -14.8125 5.71875 -14.851562 6 -14.9375 C 6.113281 -14.507812 6.171875 -14.085938 6.171875 -13.671875 C 6.171875 -13.429688 6.066406 -13.3125 5.859375 -13.3125 L 4.078125 -13.3125 L 4.078125 -2.140625 L 4.171875 0 C 3.648438 0.0703125 3.140625 0.109375 2.640625 0.109375 C 2.398438 0.109375 2.28125 -0.0195312 2.28125 -0.28125 L 2.28125 -13.3125 L 1.59375 -13.3125 C 1.050781 -13.3125 0.640625 -13.273438 0.359375 -13.203125 C 0.242188 -13.628906 0.1875 -14.046875 0.1875 -14.453125 C 0.1875 -14.691406 0.289062 -14.8125 0.5 -14.8125 Z M 4.765625 -14.8125 "/></g></g></g></svg>